<svg width="958" height="752" xmlns="http://www.w3.org/2000/svg" version="1.1" baseProfile="full"
    viewBox="0 0 958 752">
    <rect width="958" height="752" x="0" y="0" id="0" fill="#fff" fill-opacity="1"></rect>
    <path d="M68.708 709.5L919.68 709.5" fill="none" stroke="#E0E6F1"></path>
    <path d="M68.708 601.5L919.68 601.5" fill="none" stroke="#E0E6F1"></path>
    <path d="M68.708 493.5L919.68 493.5" fill="none" stroke="#E0E6F1"></path>
    <path d="M68.708 384.5L919.68 384.5" fill="none" stroke="#E0E6F1"></path>
    <path d="M68.708 276.5L919.68 276.5" fill="none" stroke="#E0E6F1"></path>
    <path d="M68.708 168.5L919.68 168.5" fill="none" stroke="#E0E6F1"></path>
    <path d="M68.708 60.5L919.68 60.5" fill="none" stroke="#E0E6F1"></path>
    <path d="M68.708 709.5L919.68 709.5" fill="none" stroke="#6E7079" stroke-linecap="round"></path>
    <path d="M68.5 709.44L68.5 714.44" fill="none" stroke="#6E7079"></path>
    <path d="M103.5 709.44L103.5 714.44" fill="none" stroke="#6E7079"></path>
    <path d="M138.5 709.44L138.5 714.44" fill="none" stroke="#6E7079"></path>
    <path d="M173.5 709.44L173.5 714.44" fill="none" stroke="#6E7079"></path>
    <path d="M207.5 709.44L207.5 714.44" fill="none" stroke="#6E7079"></path>
    <path d="M242.5 709.44L242.5 714.44" fill="none" stroke="#6E7079"></path>
    <path d="M277.5 709.44L277.5 714.44" fill="none" stroke="#6E7079"></path>
    <path d="M312.5 709.44L312.5 714.44" fill="none" stroke="#6E7079"></path>
    <path d="M346.5 709.44L346.5 714.44" fill="none" stroke="#6E7079"></path>
    <path d="M381.5 709.44L381.5 714.44" fill="none" stroke="#6E7079"></path>
    <path d="M416.5 709.44L416.5 714.44" fill="none" stroke="#6E7079"></path>
    <path d="M451.5 709.44L451.5 714.44" fill="none" stroke="#6E7079"></path>
    <path d="M485.5 709.44L485.5 714.44" fill="none" stroke="#6E7079"></path>
    <path d="M520.5 709.44L520.5 714.44" fill="none" stroke="#6E7079"></path>
    <path d="M555.5 709.44L555.5 714.44" fill="none" stroke="#6E7079"></path>
    <path d="M589.5 709.44L589.5 714.44" fill="none" stroke="#6E7079"></path>
    <path d="M624.5 709.44L624.5 714.44" fill="none" stroke="#6E7079"></path>
    <path d="M659.5 709.44L659.5 714.44" fill="none" stroke="#6E7079"></path>
    <path d="M694.5 709.44L694.5 714.44" fill="none" stroke="#6E7079"></path>
    <path d="M728.5 709.44L728.5 714.44" fill="none" stroke="#6E7079"></path>
    <path d="M763.5 709.44L763.5 714.44" fill="none" stroke="#6E7079"></path>
    <path d="M798.5 709.44L798.5 714.44" fill="none" stroke="#6E7079"></path>
    <path d="M833.5 709.44L833.5 714.44" fill="none" stroke="#6E7079"></path>
    <path d="M867.5 709.44L867.5 714.44" fill="none" stroke="#6E7079"></path>
    <path d="M902.5 709.44L902.5 714.44" fill="none" stroke="#6E7079"></path>
    <text dominant-baseline="central" text-anchor="end"
        style="font-size:12px;font-family:sans-serif;" transform="translate(60.708 709.44)"
        fill="#6E7079">0
    </text>
    <text dominant-baseline="central" text-anchor="end"
        style="font-size:12px;font-family:sans-serif;" transform="translate(60.708 601.2)"
        fill="#6E7079">1,000
    </text>
    <text dominant-baseline="central" text-anchor="end"
        style="font-size:12px;font-family:sans-serif;" transform="translate(60.708 492.96)"
        fill="#6E7079">2,000
    </text>
    <text dominant-baseline="central" text-anchor="end"
        style="font-size:12px;font-family:sans-serif;" transform="translate(60.708 384.72)"
        fill="#6E7079">3,000
    </text>
    <text dominant-baseline="central" text-anchor="end"
        style="font-size:12px;font-family:sans-serif;" transform="translate(60.708 276.48)"
        fill="#6E7079">4,000
    </text>
    <text dominant-baseline="central" text-anchor="end"
        style="font-size:12px;font-family:sans-serif;" transform="translate(60.708 168.24)"
        fill="#6E7079">5,000
    </text>
    <text dominant-baseline="central" text-anchor="end"
        style="font-size:12px;font-family:sans-serif;" transform="translate(60.708 60)"
        fill="#6E7079">6,000
    </text>
    <text dominant-baseline="central" text-anchor="middle"
        style="font-size:12px;font-family:sans-serif;" y="6" transform="translate(68.708 717.44)"
        fill="#6E7079">1
    </text>
    <text dominant-baseline="central" text-anchor="middle"
        style="font-size:12px;font-family:sans-serif;" y="6" transform="translate(103.4415 717.44)"
        fill="#6E7079">3
    </text>
    <text dominant-baseline="central" text-anchor="middle"
        style="font-size:12px;font-family:sans-serif;" y="6" transform="translate(138.1751 717.44)"
        fill="#6E7079">5
    </text>
    <text dominant-baseline="central" text-anchor="middle"
        style="font-size:12px;font-family:sans-serif;" y="6" transform="translate(172.9086 717.44)"
        fill="#6E7079">7
    </text>
    <text dominant-baseline="central" text-anchor="middle"
        style="font-size:12px;font-family:sans-serif;" y="6" transform="translate(207.6422 717.44)"
        fill="#6E7079">9
    </text>
    <text dominant-baseline="central" text-anchor="middle"
        style="font-size:12px;font-family:sans-serif;" y="6" transform="translate(242.3757 717.44)"
        fill="#6E7079">11
    </text>
    <text dominant-baseline="central" text-anchor="middle"
        style="font-size:12px;font-family:sans-serif;" y="6" transform="translate(277.1093 717.44)"
        fill="#6E7079">13
    </text>
    <text dominant-baseline="central" text-anchor="middle"
        style="font-size:12px;font-family:sans-serif;" y="6" transform="translate(311.8428 717.44)"
        fill="#6E7079">15
    </text>
    <text dominant-baseline="central" text-anchor="middle"
        style="font-size:12px;font-family:sans-serif;" y="6" transform="translate(346.5764 717.44)"
        fill="#6E7079">17
    </text>
    <text dominant-baseline="central" text-anchor="middle"
        style="font-size:12px;font-family:sans-serif;" y="6" transform="translate(381.31 717.44)"
        fill="#6E7079">19
    </text>
    <text dominant-baseline="central" text-anchor="middle"
        style="font-size:12px;font-family:sans-serif;" y="6" transform="translate(416.0435 717.44)"
        fill="#6E7079">21
    </text>
    <text dominant-baseline="central" text-anchor="middle"
        style="font-size:12px;font-family:sans-serif;" y="6" transform="translate(450.7771 717.44)"
        fill="#6E7079">23
    </text>
    <text dominant-baseline="central" text-anchor="middle"
        style="font-size:12px;font-family:sans-serif;" y="6" transform="translate(485.5106 717.44)"
        fill="#6E7079">25
    </text>
    <text dominant-baseline="central" text-anchor="middle"
        style="font-size:12px;font-family:sans-serif;" y="6" transform="translate(520.2442 717.44)"
        fill="#6E7079">27
    </text>
    <text dominant-baseline="central" text-anchor="middle"
        style="font-size:12px;font-family:sans-serif;" y="6" transform="translate(554.9777 717.44)"
        fill="#6E7079">29
    </text>
    <text dominant-baseline="central" text-anchor="middle"
        style="font-size:12px;font-family:sans-serif;" y="6" transform="translate(589.7113 717.44)"
        fill="#6E7079">31
    </text>
    <text dominant-baseline="central" text-anchor="middle"
        style="font-size:12px;font-family:sans-serif;" y="6" transform="translate(624.4448 717.44)"
        fill="#6E7079">33
    </text>
    <text dominant-baseline="central" text-anchor="middle"
        style="font-size:12px;font-family:sans-serif;" y="6" transform="translate(659.1784 717.44)"
        fill="#6E7079">35
    </text>
    <text dominant-baseline="central" text-anchor="middle"
        style="font-size:12px;font-family:sans-serif;" y="6" transform="translate(693.9119 717.44)"
        fill="#6E7079">37
    </text>
    <text dominant-baseline="central" text-anchor="middle"
        style="font-size:12px;font-family:sans-serif;" y="6" transform="translate(728.6455 717.44)"
        fill="#6E7079">39
    </text>
    <text dominant-baseline="central" text-anchor="middle"
        style="font-size:12px;font-family:sans-serif;" y="6" transform="translate(763.379 717.44)"
        fill="#6E7079">41
    </text>
    <text dominant-baseline="central" text-anchor="middle"
        style="font-size:12px;font-family:sans-serif;" y="6" transform="translate(798.1126 717.44)"
        fill="#6E7079">43
    </text>
    <text dominant-baseline="central" text-anchor="middle"
        style="font-size:12px;font-family:sans-serif;" y="6" transform="translate(832.8461 717.44)"
        fill="#6E7079">45
    </text>
    <text dominant-baseline="central" text-anchor="middle"
        style="font-size:12px;font-family:sans-serif;" y="6" transform="translate(867.5797 717.44)"
        fill="#6E7079">47
    </text>
    <text dominant-baseline="central" text-anchor="middle"
        style="font-size:12px;font-family:sans-serif;" y="6" transform="translate(902.3132 717.44)"
        fill="#6E7079">49
    </text>
    <g clip-path="url(#zr0-c0)">
        <path
            d="M68.708 693.3281L86.0748 693.8467L103.4415 693.9706L120.8083 693.9369L138.1751 693.9933L155.5419 694.2469L172.9086 694.213L190.2754 694.5062L207.6422 691.5861L225.009 627.7019L242.3757 695.0927L259.7425 695.2054L277.1093 694.5344L294.4761 695.8422L311.8428 686.7095L329.2096 694.5062L346.5764 695.3799L363.9432 694.7036L381.3099 695.4985L398.6767 694.8953L416.0435 694.2299L433.4103 695.6733L450.7771 695.0473L468.1438 694.4667L485.5106 695.4139L502.8774 694.6923L520.2441 695.2505L537.611 693.8467L554.9777 696.4173L572.3445 695.6281L589.7112 696.9191L607.0781 696.829L624.4448 696.7613L641.8116 697.1277L659.1783 697.1277L676.5452 697.4773L693.9119 696.9811L711.2787 697.0206L728.6454 697.0206L746.0123 696.891L763.379 697.1672L780.7458 696.9473L798.1125 696.3779L815.4794 696.7668L832.8461 696.9246L850.2129 697.1671L867.5797 696.7951L884.9465 697.4828L902.3132 697.3138L919.68 697.2969"
            fill="none" stroke="#5470c6" stroke-width="2" stroke-linejoin="bevel"></path>
    </g>
    <g clip-path="url(#zr0-c1)">
        <path
            d="M68.708 555.4631L86.0748 503.8405L103.4415 581.824L120.8083 585.7816L138.1751 587.7208L155.5419 588.6229L172.9086 589.7219L190.2754 583.752L207.6422 588.9611L225.009 522.9741L242.3757 590.9567L259.7425 591.977L277.1093 592.4279L294.4761 591.103L311.8428 582.3649L329.2096 590.562L346.5764 580.1664L363.9432 588.5665L381.3099 525.8887L398.6767 552.9656L416.0435 551.2459L433.4103 555.4855L450.7771 555.5135L468.1438 71.7315L485.5106 579.4167L502.8774 586.7681L520.2441 570.0247L537.611 580.8318L554.9777 582.7596L572.3445 581.4744L589.7112 580.8655L607.0781 584.6934L624.4448 580.8148L641.8116 586.7004L659.1783 571.7723L676.5452 587.7039L693.9119 588.3353L711.2787 585.3248L728.6454 585.7307L746.0123 589.3726L763.379 589.457L780.7458 589.1922L798.1125 566.4166L815.4794 592.3886L832.8461 591.96L850.2129 593.4034L867.5797 202.2848L884.9465 588.6622L902.3132 587.1965L919.68 589.9927"
            fill="none" stroke="rgb(145,204,117)" stroke-width="2" stroke-linejoin="bevel"></path>
    </g>
    <path d="M1 0A1 1 0 1 1 1 -0.0001" transform="matrix(2,0,0,2,68.708,693.3281)" fill="#fff"
        stroke="#5470c6"></path>
    <path d="M1 0A1 1 0 1 1 1 -0.0001" transform="matrix(2,0,0,2,86.0748,693.8467)" fill="#fff"
        stroke="#5470c6"></path>
    <path d="M1 0A1 1 0 1 1 1 -0.0001" transform="matrix(2,0,0,2,103.4415,693.9706)" fill="#fff"
        stroke="#5470c6"></path>
    <path d="M1 0A1 1 0 1 1 1 -0.0001" transform="matrix(2,0,0,2,120.8083,693.9369)" fill="#fff"
        stroke="#5470c6"></path>
    <path d="M1 0A1 1 0 1 1 1 -0.0001" transform="matrix(2,0,0,2,138.1751,693.9933)" fill="#fff"
        stroke="#5470c6"></path>
    <path d="M1 0A1 1 0 1 1 1 -0.0001" transform="matrix(2,0,0,2,155.5419,694.2469)" fill="#fff"
        stroke="#5470c6"></path>
    <path d="M1 0A1 1 0 1 1 1 -0.0001" transform="matrix(2,0,0,2,172.9086,694.213)" fill="#fff"
        stroke="#5470c6"></path>
    <path d="M1 0A1 1 0 1 1 1 -0.0001" transform="matrix(2,0,0,2,190.2754,694.5062)" fill="#fff"
        stroke="#5470c6"></path>
    <path d="M1 0A1 1 0 1 1 1 -0.0001" transform="matrix(2,0,0,2,207.6422,691.5861)" fill="#fff"
        stroke="#5470c6"></path>
    <path d="M1 0A1 1 0 1 1 1 -0.0001" transform="matrix(2,0,0,2,225.009,627.7019)" fill="#fff"
        stroke="#5470c6"></path>
    <path d="M1 0A1 1 0 1 1 1 -0.0001" transform="matrix(2,0,0,2,242.3757,695.0927)" fill="#fff"
        stroke="#5470c6"></path>
    <path d="M1 0A1 1 0 1 1 1 -0.0001" transform="matrix(2,0,0,2,259.7425,695.2054)" fill="#fff"
        stroke="#5470c6"></path>
    <path d="M1 0A1 1 0 1 1 1 -0.0001" transform="matrix(2,0,0,2,277.1093,694.5344)" fill="#fff"
        stroke="#5470c6"></path>
    <path d="M1 0A1 1 0 1 1 1 -0.0001" transform="matrix(2,0,0,2,294.4761,695.8422)" fill="#fff"
        stroke="#5470c6"></path>
    <path d="M1 0A1 1 0 1 1 1 -0.0001" transform="matrix(2,0,0,2,311.8428,686.7095)" fill="#fff"
        stroke="#5470c6"></path>
    <path d="M1 0A1 1 0 1 1 1 -0.0001" transform="matrix(2,0,0,2,329.2096,694.5062)" fill="#fff"
        stroke="#5470c6"></path>
    <path d="M1 0A1 1 0 1 1 1 -0.0001" transform="matrix(2,0,0,2,346.5764,695.3799)" fill="#fff"
        stroke="#5470c6"></path>
    <path d="M1 0A1 1 0 1 1 1 -0.0001" transform="matrix(2,0,0,2,363.9432,694.7036)" fill="#fff"
        stroke="#5470c6"></path>
    <path d="M1 0A1 1 0 1 1 1 -0.0001" transform="matrix(2,0,0,2,381.3099,695.4985)" fill="#fff"
        stroke="#5470c6"></path>
    <path d="M1 0A1 1 0 1 1 1 -0.0001" transform="matrix(2,0,0,2,398.6767,694.8953)" fill="#fff"
        stroke="#5470c6"></path>
    <path d="M1 0A1 1 0 1 1 1 -0.0001" transform="matrix(2,0,0,2,416.0435,694.2299)" fill="#fff"
        stroke="#5470c6"></path>
    <path d="M1 0A1 1 0 1 1 1 -0.0001" transform="matrix(2,0,0,2,433.4103,695.6733)" fill="#fff"
        stroke="#5470c6"></path>
    <path d="M1 0A1 1 0 1 1 1 -0.0001" transform="matrix(2,0,0,2,450.7771,695.0473)" fill="#fff"
        stroke="#5470c6"></path>
    <path d="M1 0A1 1 0 1 1 1 -0.0001" transform="matrix(2,0,0,2,468.1438,694.4667)" fill="#fff"
        stroke="#5470c6"></path>
    <path d="M1 0A1 1 0 1 1 1 -0.0001" transform="matrix(2,0,0,2,485.5106,695.4139)" fill="#fff"
        stroke="#5470c6"></path>
    <path d="M1 0A1 1 0 1 1 1 -0.0001" transform="matrix(2,0,0,2,502.8774,694.6923)" fill="#fff"
        stroke="#5470c6"></path>
    <path d="M1 0A1 1 0 1 1 1 -0.0001" transform="matrix(2,0,0,2,520.2441,695.2505)" fill="#fff"
        stroke="#5470c6"></path>
    <path d="M1 0A1 1 0 1 1 1 -0.0001" transform="matrix(2,0,0,2,537.611,693.8467)" fill="#fff"
        stroke="#5470c6"></path>
    <path d="M1 0A1 1 0 1 1 1 -0.0001" transform="matrix(2,0,0,2,554.9777,696.4173)" fill="#fff"
        stroke="#5470c6"></path>
    <path d="M1 0A1 1 0 1 1 1 -0.0001" transform="matrix(2,0,0,2,572.3445,695.6281)" fill="#fff"
        stroke="#5470c6"></path>
    <path d="M1 0A1 1 0 1 1 1 -0.0001" transform="matrix(2,0,0,2,589.7112,696.9191)" fill="#fff"
        stroke="#5470c6"></path>
    <path d="M1 0A1 1 0 1 1 1 -0.0001" transform="matrix(2,0,0,2,607.0781,696.829)" fill="#fff"
        stroke="#5470c6"></path>
    <path d="M1 0A1 1 0 1 1 1 -0.0001" transform="matrix(2,0,0,2,624.4448,696.7613)" fill="#fff"
        stroke="#5470c6"></path>
    <path d="M1 0A1 1 0 1 1 1 -0.0001" transform="matrix(2,0,0,2,641.8116,697.1277)" fill="#fff"
        stroke="#5470c6"></path>
    <path d="M1 0A1 1 0 1 1 1 -0.0001" transform="matrix(2,0,0,2,659.1783,697.1277)" fill="#fff"
        stroke="#5470c6"></path>
    <path d="M1 0A1 1 0 1 1 1 -0.0001" transform="matrix(2,0,0,2,676.5452,697.4773)" fill="#fff"
        stroke="#5470c6"></path>
    <path d="M1 0A1 1 0 1 1 1 -0.0001" transform="matrix(2,0,0,2,693.9119,696.9811)" fill="#fff"
        stroke="#5470c6"></path>
    <path d="M1 0A1 1 0 1 1 1 -0.0001" transform="matrix(2,0,0,2,711.2787,697.0206)" fill="#fff"
        stroke="#5470c6"></path>
    <path d="M1 0A1 1 0 1 1 1 -0.0001" transform="matrix(2,0,0,2,728.6454,697.0206)" fill="#fff"
        stroke="#5470c6"></path>
    <path d="M1 0A1 1 0 1 1 1 -0.0001" transform="matrix(2,0,0,2,746.0123,696.891)" fill="#fff"
        stroke="#5470c6"></path>
    <path d="M1 0A1 1 0 1 1 1 -0.0001" transform="matrix(2,0,0,2,763.379,697.1672)" fill="#fff"
        stroke="#5470c6"></path>
    <path d="M1 0A1 1 0 1 1 1 -0.0001" transform="matrix(2,0,0,2,780.7458,696.9473)" fill="#fff"
        stroke="#5470c6"></path>
    <path d="M1 0A1 1 0 1 1 1 -0.0001" transform="matrix(2,0,0,2,798.1125,696.3779)" fill="#fff"
        stroke="#5470c6"></path>
    <path d="M1 0A1 1 0 1 1 1 -0.0001" transform="matrix(2,0,0,2,815.4794,696.7668)" fill="#fff"
        stroke="#5470c6"></path>
    <path d="M1 0A1 1 0 1 1 1 -0.0001" transform="matrix(2,0,0,2,832.8461,696.9246)" fill="#fff"
        stroke="#5470c6"></path>
    <path d="M1 0A1 1 0 1 1 1 -0.0001" transform="matrix(2,0,0,2,850.2129,697.1671)" fill="#fff"
        stroke="#5470c6"></path>
    <path d="M1 0A1 1 0 1 1 1 -0.0001" transform="matrix(2,0,0,2,867.5797,696.7951)" fill="#fff"
        stroke="#5470c6"></path>
    <path d="M1 0A1 1 0 1 1 1 -0.0001" transform="matrix(2,0,0,2,884.9465,697.4828)" fill="#fff"
        stroke="#5470c6"></path>
    <path d="M1 0A1 1 0 1 1 1 -0.0001" transform="matrix(2,0,0,2,902.3132,697.3138)" fill="#fff"
        stroke="#5470c6"></path>
    <path d="M1 0A1 1 0 1 1 1 -0.0001" transform="matrix(2,0,0,2,919.68,697.2969)" fill="#fff"
        stroke="#5470c6"></path>
    <path d="M1 0A1 1 0 1 1 1 -0.0001" transform="matrix(2,0,0,2,68.708,555.4631)"
        fill="rgb(255,255,255)" stroke="#91cc75"></path>
    <path d="M1 0A1 1 0 1 1 1 -0.0001" transform="matrix(2,0,0,2,86.0748,503.8405)"
        fill="rgb(255,255,255)" stroke="#91cc75"></path>
    <path d="M1 0A1 1 0 1 1 1 -0.0001" transform="matrix(2,0,0,2,103.4415,581.824)"
        fill="rgb(255,255,255)" stroke="#91cc75"></path>
    <path d="M1 0A1 1 0 1 1 1 -0.0001" transform="matrix(2,0,0,2,120.8083,585.7816)"
        fill="rgb(255,255,255)" stroke="#91cc75"></path>
    <path d="M1 0A1 1 0 1 1 1 -0.0001" transform="matrix(2,0,0,2,138.1751,587.7208)"
        fill="rgb(255,255,255)" stroke="#91cc75"></path>
    <path d="M1 0A1 1 0 1 1 1 -0.0001" transform="matrix(2,0,0,2,155.5419,588.6229)"
        fill="rgb(255,255,255)" stroke="#91cc75"></path>
    <path d="M1 0A1 1 0 1 1 1 -0.0001" transform="matrix(2,0,0,2,172.9086,589.7219)"
        fill="rgb(255,255,255)" stroke="#91cc75"></path>
    <path d="M1 0A1 1 0 1 1 1 -0.0001" transform="matrix(2,0,0,2,190.2754,583.752)"
        fill="rgb(255,255,255)" stroke="#91cc75"></path>
    <path d="M1 0A1 1 0 1 1 1 -0.0001" transform="matrix(2,0,0,2,207.6422,588.9611)"
        fill="rgb(255,255,255)" stroke="#91cc75"></path>
    <path d="M1 0A1 1 0 1 1 1 -0.0001" transform="matrix(2,0,0,2,225.009,522.9741)"
        fill="rgb(255,255,255)" stroke="#91cc75"></path>
    <path d="M1 0A1 1 0 1 1 1 -0.0001" transform="matrix(2,0,0,2,242.3757,590.9567)"
        fill="rgb(255,255,255)" stroke="#91cc75"></path>
    <path d="M1 0A1 1 0 1 1 1 -0.0001" transform="matrix(2,0,0,2,259.7425,591.977)"
        fill="rgb(255,255,255)" stroke="#91cc75"></path>
    <path d="M1 0A1 1 0 1 1 1 -0.0001" transform="matrix(2,0,0,2,277.1093,592.4279)"
        fill="rgb(255,255,255)" stroke="#91cc75"></path>
    <path d="M1 0A1 1 0 1 1 1 -0.0001" transform="matrix(2,0,0,2,294.4761,591.103)"
        fill="rgb(255,255,255)" stroke="#91cc75"></path>
    <path d="M1 0A1 1 0 1 1 1 -0.0001" transform="matrix(2,0,0,2,311.8428,582.3649)"
        fill="rgb(255,255,255)" stroke="#91cc75"></path>
    <path d="M1 0A1 1 0 1 1 1 -0.0001" transform="matrix(2,0,0,2,329.2096,590.562)"
        fill="rgb(255,255,255)" stroke="#91cc75"></path>
    <path d="M1 0A1 1 0 1 1 1 -0.0001" transform="matrix(2,0,0,2,346.5764,580.1664)"
        fill="rgb(255,255,255)" stroke="#91cc75"></path>
    <path d="M1 0A1 1 0 1 1 1 -0.0001" transform="matrix(2,0,0,2,363.9432,588.5665)"
        fill="rgb(255,255,255)" stroke="#91cc75"></path>
    <path d="M1 0A1 1 0 1 1 1 -0.0001" transform="matrix(2,0,0,2,381.3099,525.8887)"
        fill="rgb(255,255,255)" stroke="#91cc75"></path>
    <path d="M1 0A1 1 0 1 1 1 -0.0001" transform="matrix(2,0,0,2,398.6767,552.9656)"
        fill="rgb(255,255,255)" stroke="#91cc75"></path>
    <path d="M1 0A1 1 0 1 1 1 -0.0001" transform="matrix(2,0,0,2,416.0435,551.2459)"
        fill="rgb(255,255,255)" stroke="#91cc75"></path>
    <path d="M1 0A1 1 0 1 1 1 -0.0001" transform="matrix(2,0,0,2,433.4103,555.4855)"
        fill="rgb(255,255,255)" stroke="#91cc75"></path>
    <path d="M1 0A1 1 0 1 1 1 -0.0001" transform="matrix(2,0,0,2,450.7771,555.5135)"
        fill="rgb(255,255,255)" stroke="#91cc75"></path>
    <path d="M1 0A1 1 0 1 1 1 -0.0001" transform="matrix(2,0,0,2,468.1438,71.7315)"
        fill="rgb(255,255,255)" stroke="#91cc75"></path>
    <path d="M1 0A1 1 0 1 1 1 -0.0001" transform="matrix(2,0,0,2,485.5106,579.4167)"
        fill="rgb(255,255,255)" stroke="#91cc75"></path>
    <path d="M1 0A1 1 0 1 1 1 -0.0001" transform="matrix(2,0,0,2,502.8774,586.7681)"
        fill="rgb(255,255,255)" stroke="#91cc75"></path>
    <path d="M1 0A1 1 0 1 1 1 -0.0001" transform="matrix(2,0,0,2,520.2441,570.0247)"
        fill="rgb(255,255,255)" stroke="#91cc75"></path>
    <path d="M1 0A1 1 0 1 1 1 -0.0001" transform="matrix(2,0,0,2,537.611,580.8318)"
        fill="rgb(255,255,255)" stroke="#91cc75"></path>
    <path d="M1 0A1 1 0 1 1 1 -0.0001" transform="matrix(2,0,0,2,554.9777,582.7596)"
        fill="rgb(255,255,255)" stroke="#91cc75"></path>
    <path d="M1 0A1 1 0 1 1 1 -0.0001" transform="matrix(2,0,0,2,572.3445,581.4744)"
        fill="rgb(255,255,255)" stroke="#91cc75"></path>
    <path d="M1 0A1 1 0 1 1 1 -0.0001" transform="matrix(2,0,0,2,589.7112,580.8655)"
        fill="rgb(255,255,255)" stroke="#91cc75"></path>
    <path d="M1 0A1 1 0 1 1 1 -0.0001" transform="matrix(2,0,0,2,607.0781,584.6934)"
        fill="rgb(255,255,255)" stroke="#91cc75"></path>
    <path d="M1 0A1 1 0 1 1 1 -0.0001" transform="matrix(2,0,0,2,624.4448,580.8148)"
        fill="rgb(255,255,255)" stroke="#91cc75"></path>
    <path d="M1 0A1 1 0 1 1 1 -0.0001" transform="matrix(2,0,0,2,641.8116,586.7004)"
        fill="rgb(255,255,255)" stroke="#91cc75"></path>
    <path d="M1 0A1 1 0 1 1 1 -0.0001" transform="matrix(2,0,0,2,659.1783,571.7723)"
        fill="rgb(255,255,255)" stroke="#91cc75"></path>
    <path d="M1 0A1 1 0 1 1 1 -0.0001" transform="matrix(2,0,0,2,676.5452,587.7039)"
        fill="rgb(255,255,255)" stroke="#91cc75"></path>
    <path d="M1 0A1 1 0 1 1 1 -0.0001" transform="matrix(2,0,0,2,693.9119,588.3353)"
        fill="rgb(255,255,255)" stroke="#91cc75"></path>
    <path d="M1 0A1 1 0 1 1 1 -0.0001" transform="matrix(2,0,0,2,711.2787,585.3248)"
        fill="rgb(255,255,255)" stroke="#91cc75"></path>
    <path d="M1 0A1 1 0 1 1 1 -0.0001" transform="matrix(2,0,0,2,728.6454,585.7307)"
        fill="rgb(255,255,255)" stroke="#91cc75"></path>
    <path d="M1 0A1 1 0 1 1 1 -0.0001" transform="matrix(2,0,0,2,746.0123,589.3726)"
        fill="rgb(255,255,255)" stroke="#91cc75"></path>
    <path d="M1 0A1 1 0 1 1 1 -0.0001" transform="matrix(2,0,0,2,763.379,589.457)"
        fill="rgb(255,255,255)" stroke="#91cc75"></path>
    <path d="M1 0A1 1 0 1 1 1 -0.0001" transform="matrix(2,0,0,2,780.7458,589.1922)"
        fill="rgb(255,255,255)" stroke="#91cc75"></path>
    <path d="M1 0A1 1 0 1 1 1 -0.0001" transform="matrix(2,0,0,2,798.1125,566.4166)"
        fill="rgb(255,255,255)" stroke="#91cc75"></path>
    <path d="M1 0A1 1 0 1 1 1 -0.0001" transform="matrix(2,0,0,2,815.4794,592.3886)"
        fill="rgb(255,255,255)" stroke="#91cc75"></path>
    <path d="M1 0A1 1 0 1 1 1 -0.0001" transform="matrix(2,0,0,2,832.8461,591.96)"
        fill="rgb(255,255,255)" stroke="#91cc75"></path>
    <path d="M1 0A1 1 0 1 1 1 -0.0001" transform="matrix(2,0,0,2,850.2129,593.4034)"
        fill="rgb(255,255,255)" stroke="#91cc75"></path>
    <path d="M1 0A1 1 0 1 1 1 -0.0001" transform="matrix(2,0,0,2,867.5797,202.2848)"
        fill="rgb(255,255,255)" stroke="#91cc75"></path>
    <path d="M1 0A1 1 0 1 1 1 -0.0001" transform="matrix(2,0,0,2,884.9465,588.6622)"
        fill="rgb(255,255,255)" stroke="#91cc75"></path>
    <path d="M1 0A1 1 0 1 1 1 -0.0001" transform="matrix(2,0,0,2,902.3132,587.1965)"
        fill="rgb(255,255,255)" stroke="#91cc75"></path>
    <path d="M1 0A1 1 0 1 1 1 -0.0001" transform="matrix(2,0,0,2,919.68,589.9927)"
        fill="rgb(255,255,255)" stroke="#91cc75"></path>
    <path d="M-5 -5l154.6239 0l0 23.2l-154.6239 0Z" transform="translate(406.688 5)"
        fill="rgb(0,0,0)" fill-opacity="0" stroke="#ccc" stroke-width="0"></path>
    <path d="M0 7L25 7" transform="translate(407.688 4.6)" fill="#000" stroke="#5470c6"
        stroke-width="2" stroke-linecap="butt" stroke-miterlimit="10"></path>
    <path d="M18.1 7A5.6 5.6 0 1 1 18.1 6.9994" transform="translate(407.688 4.6)" fill="#fff"
        stroke="#5470c6" stroke-width="2" stroke-linecap="butt" stroke-miterlimit="10"></path>
    <text dominant-baseline="central" text-anchor="start"
        style="font-size:12px;font-family:sans-serif;" x="30" y="7"
        transform="translate(407.688 4.6)" fill="#333">Boost
    </text>
    <path d="M0 7L25 7" transform="translate(481.196 4.6)" fill="#000" stroke="#91cc75"
        stroke-width="2" stroke-linecap="butt" stroke-miterlimit="10"></path>
    <path d="M18.1 7A5.6 5.6 0 1 1 18.1 6.9994" transform="translate(481.196 4.6)" fill="#fff"
        stroke="#91cc75" stroke-width="2" stroke-linecap="butt" stroke-miterlimit="10"></path>
    <text dominant-baseline="central" text-anchor="start"
        style="font-size:12px;font-family:sans-serif;" x="30" y="7"
        transform="translate(481.196 4.6)" fill="#333">Default
    </text>
    <path d="M-5 -5l118 0l0 28l-118 0Z" transform="translate(5 5)" fill="rgb(0,0,0)"
        fill-opacity="0" stroke="#ccc" stroke-width="0"></path>
    <text dominant-baseline="central" text-anchor="start"
        style="font-size:18px;font-family:sans-serif;font-weight:bold;" y="9"
        transform="translate(5 5)" fill="#464646">时间性能对比
    </text>
    <defs>
        <clipPath id="zr0-c0">
            <path d="M67 59l853 0l0 651.44l-853 0Z" fill="#000"></path>
        </clipPath>
        <clipPath id="zr0-c1">
            <path d="M67 59l853 0l0 651.44l-853 0Z" fill="#000"></path>
        </clipPath>
    </defs>
</svg>